<?xml version="1.0" encoding="UTF-8"?>
<svg xmlns="http://www.w3.org/2000/svg" width="1024" height="1024" viewBox="0 0 1024 1024" fill="none" aria-hidden="true">
  <defs>
    <linearGradient id="background" x1="184" y1="84" x2="844" y2="954" gradientUnits="userSpaceOnUse">
      <stop offset="0" stop-color="#F1FAFF"/>
      <stop offset="0.48" stop-color="#C9EBFB"/>
      <stop offset="1" stop-color="#91CDED"/>
    </linearGradient>
    <radialGradient id="background-light" cx="0" cy="0" r="1" gradientUnits="userSpaceOnUse" gradientTransform="translate(357 212) rotate(55) scale(664 734)">
      <stop stop-color="white" stop-opacity="0.72"/>
      <stop offset="0.62" stop-color="white" stop-opacity="0.06"/>
      <stop offset="1" stop-color="white" stop-opacity="0"/>
    </radialGradient>
    <linearGradient id="play-back" x1="425" y1="324" x2="758" y2="727" gradientUnits="userSpaceOnUse">
      <stop stop-color="#278BCF"/>
      <stop offset="1" stop-color="#3167D8"/>
    </linearGradient>
    <linearGradient id="play-front" x1="423" y1="315" x2="737" y2="704" gradientUnits="userSpaceOnUse">
      <stop stop-color="#45D7E6"/>
      <stop offset="0.47" stop-color="#2FADE5"/>
      <stop offset="1" stop-color="#3679E2"/>
    </linearGradient>
    <linearGradient id="play-highlight" x1="442" y1="335" x2="604" y2="486" gradientUnits="userSpaceOnUse">
      <stop stop-color="white" stop-opacity="0.72"/>
      <stop offset="1" stop-color="white" stop-opacity="0"/>
    </linearGradient>
    <filter id="symbol-shadow" x="146" y="231" width="708" height="602" filterUnits="userSpaceOnUse" color-interpolation-filters="sRGB">
      <feDropShadow dx="0" dy="24" stdDeviation="24" flood-color="#356EAA" flood-opacity="0.22"/>
    </filter>
    <filter id="soft-inner" x="-20%" y="-20%" width="140%" height="140%" color-interpolation-filters="sRGB">
      <feGaussianBlur in="SourceAlpha" stdDeviation="5" result="blur"/>
      <feOffset dy="5"/>
      <feComposite in2="SourceAlpha" operator="out"/>
      <feColorMatrix values="0 0 0 0 0.12 0 0 0 0 0.40 0 0 0 0 0.68 0 0 0 0.22 0"/>
      <feBlend in="SourceGraphic" mode="normal"/>
    </filter>
  </defs>

  <rect width="1024" height="1024" rx="210" fill="url(#background)"/>
  <rect width="1024" height="1024" rx="210" fill="url(#background-light)"/>
  <rect x="3" y="3" width="1018" height="1018" rx="207" stroke="white" stroke-opacity="0.58" stroke-width="6"/>

  <g id="larger-centered-play-symbol" filter="url(#symbol-shadow)" transform="translate(512 512) scale(1.344) translate(-512 -512)">
    <g transform="translate(-40 0)">

    <path d="M474 322C437 299 389 325 389 369V677C389 722 438 748 475 723L763 545C800 522 800 468 763 445L474 322Z" fill="url(#play-back)" opacity="0.38" transform="translate(20 22)"/>
    <path d="M462 305C425 282 377 308 377 352V660C377 705 426 731 463 706L751 528C788 505 788 451 751 428L462 305Z" fill="url(#play-front)" filter="url(#soft-inner)"/>
    <path d="M458 326C437 313 411 328 411 352V435C411 454 431 466 447 456L594 365L458 326Z" fill="url(#play-highlight)"/>
    <path d="M742 444C770 462 770 494 742 512L471 680C454 691 432 684 423 668C435 681 452 683 467 674L733 510C760 493 760 463 735 447L742 444Z" fill="#1B66C9" fill-opacity="0.18"/>
    </g>
  </g>
</svg>
